<svg width="200" height="90" viewBox="0 0 155 87" fill="none" xmlns="http://www.w3.org/2000/svg">
<g filter="url(#filter0_d_3_4)">
<path d="M24.616 78.352C23.976 78.352 23.144 78.256 22.12 78.064C21.096 77.872 20.04 77.488 18.952 76.912C17.928 76.4 17.064 75.568 16.36 74.416C15.656 73.264 15.304 71.728 15.304 69.808C15.304 68.208 15.624 66.128 16.264 63.568C16.904 60.944 17.992 57.136 19.528 52.144C20.68 48.368 21.8 44.656 22.888 41.008C24.04 37.296 24.968 33.456 25.672 29.488C26.44 25.52 26.824 21.296 26.824 16.816C26.824 14.192 26.664 11.984 26.344 10.192C26.024 8.4 25.416 7.056 24.52 6.16C23.688 5.2 22.504 4.72 20.968 4.72C19.432 4.72 18.088 5.136 16.936 5.96799C15.784 6.8 14.824 7.92 14.056 9.328C13.288 10.672 12.712 12.176 12.328 13.84C11.944 15.504 11.752 17.168 11.752 18.832C11.752 21.648 12.232 23.984 13.192 25.84C10.056 25.84 7.784 25.104 6.376 23.632C4.968 22.16 4.264 20.336 4.264 18.16C4.264 16.24 4.744 14.256 5.704 12.208C6.664 10.16 7.976 8.304 9.64 6.64C11.368 4.912 13.352 3.536 15.592 2.512C17.832 1.424 20.232 0.879997 22.792 0.879997C27.144 0.879997 30.44 2.48 32.68 5.68C34.984 8.88 36.136 13.424 36.136 19.312C36.136 23.728 35.528 28.336 34.312 33.136C33.16 37.872 31.688 43.056 29.896 48.688C29.256 50.736 28.488 53.008 27.592 55.504C26.76 57.936 25.992 60.464 25.288 63.088C24.648 65.648 24.328 68.208 24.328 70.768C24.328 71.984 24.456 72.816 24.712 73.264C25.032 73.776 25.608 74.032 26.44 74.032C28.168 74.032 29.992 73.296 31.912 71.824C33.896 70.352 35.88 68.368 37.864 65.872C39.848 63.376 41.736 60.592 43.528 57.52C45.384 54.448 47.08 51.312 48.616 48.112C50.152 44.848 51.432 41.776 52.456 38.896C53.48 35.952 54.152 33.392 54.472 31.216C56.904 31.216 58.792 31.888 60.136 33.232C61.48 34.576 62.152 35.856 62.152 37.072C62.152 37.712 61.864 38.8 61.288 40.336C60.776 41.872 59.88 44.144 58.6 47.152C57.576 49.584 56.52 52.176 55.432 54.928C54.344 57.616 53.416 60.304 52.648 62.992C51.944 65.616 51.592 68.08 51.592 70.384C51.592 71.664 51.752 72.592 52.072 73.168C52.456 73.744 53.128 74.032 54.088 74.032C55.88 74.032 57.928 73.136 60.232 71.344C62.6 69.616 65.032 67.248 67.528 64.24C70.024 61.168 72.456 57.744 74.824 53.968C77.192 50.128 79.336 46.16 81.256 42.064C83.176 37.968 84.68 33.936 85.768 29.968C86.92 26 87.496 22.384 87.496 19.12C87.496 15.6 86.856 13.104 85.576 11.632C84.36 10.16 82.824 9.104 80.968 8.464C82.12 6.608 83.336 5.264 84.616 4.432C85.96 3.536 87.144 3.088 88.168 3.088C89.64 3.088 91.144 4.048 92.68 5.96799C94.28 7.824 95.08 10.768 95.08 14.8C95.08 18.192 94.408 22.096 93.064 26.512C91.784 30.928 89.992 35.536 87.688 40.336C85.448 45.072 82.856 49.712 79.912 54.256C77.032 58.736 73.928 62.8 70.6 66.448C67.336 70.096 64.04 72.976 60.712 75.088C57.384 77.264 54.216 78.352 51.208 78.352C49.544 78.352 48.04 78 46.696 77.296C45.416 76.656 44.392 75.696 43.624 74.416C42.92 73.2 42.568 71.76 42.568 70.096C42.568 69.328 42.664 68.528 42.856 67.696C43.048 66.864 43.272 66.032 43.528 65.2C40.392 69.168 37.224 72.336 34.024 74.704C30.888 77.136 27.752 78.352 24.616 78.352Z" fill="#D77A7A"/>
<path d="M140.02 78.352C138.612 78.352 136.98 77.52 135.124 75.856C133.268 74.192 131.284 71.984 129.172 69.232C127.124 66.48 125.076 63.504 123.028 60.304C121.044 57.04 119.188 53.808 117.46 50.608C115.796 47.408 114.388 44.56 113.236 42.064L103.924 72.208C103.476 73.68 102.772 74.704 101.812 75.28C100.852 75.92 99.796 76.304 98.644 76.432C97.556 76.56 96.468 76.624 95.38 76.624C96.212 74.832 97.044 72.784 97.876 70.48C98.772 68.176 99.796 65.392 100.948 62.128C102.164 58.864 103.572 54.896 105.172 50.224C106.772 45.552 108.66 39.984 110.836 33.52C113.076 26.992 115.7 19.344 118.708 10.576C118.9 10.064 119.156 9.36 119.476 8.464C119.796 7.504 119.956 6.64 119.956 5.872C119.956 5.168 119.796 4.624 119.476 4.23999C119.156 3.792 118.548 3.568 117.652 3.568C116.116 3.568 114.612 4.208 113.14 5.488C111.732 6.70399 110.452 8.272 109.3 10.192C108.212 12.112 107.348 14.096 106.708 16.144C106.068 18.192 105.748 20.016 105.748 21.616C105.748 22.832 105.908 23.92 106.228 24.88C104.116 24.88 102.612 24.368 101.716 23.344C100.884 22.256 100.468 20.944 100.468 19.408C100.468 17.232 101.108 15.056 102.388 12.88C103.668 10.704 105.3 8.72 107.284 6.928C109.332 5.072 111.444 3.6 113.62 2.512C115.86 1.424 117.876 0.879997 119.668 0.879997C121.396 0.879997 122.548 1.36 123.124 2.32C123.764 3.27999 124.084 4.33599 124.084 5.488C124.084 6.192 123.988 6.896 123.796 7.6C123.668 8.304 123.508 8.976 123.316 9.616L115.252 35.728C116.148 34.448 117.3 33.264 118.708 32.176C120.18 31.088 121.78 29.84 123.508 28.432C126.388 26.128 129.46 23.44 132.724 20.368C136.052 17.296 139.22 14.064 142.228 10.672C145.236 7.28 147.732 4.016 149.716 0.879997C150.036 1.264 150.26 1.936 150.388 2.89599C150.516 3.856 150.58 4.592 150.58 5.10399C150.58 7.088 149.748 9.264 148.084 11.632C146.484 14 144.372 16.464 141.748 19.024C139.124 21.52 136.244 24.016 133.108 26.512C129.972 28.944 126.868 31.248 123.796 33.424C120.788 35.6 118.068 37.488 115.636 39.088C117.556 42.352 119.412 45.456 121.204 48.4C123.06 51.344 125.044 54.224 127.156 57.04C129.332 59.856 131.86 62.736 134.74 65.68C137.62 68.624 141.108 71.792 145.204 75.184C144.756 76.016 144.052 76.752 143.092 77.392C142.132 78.032 141.108 78.352 140.02 78.352Z" fill="#200808"/>
<path d="M22.12 78.064L21.9357 79.0469L21.9357 79.0469L22.12 78.064ZM18.952 76.912L19.4199 76.0282L19.4096 76.0228L19.3992 76.0176L18.952 76.912ZM16.36 74.416L17.2133 73.8946L17.2133 73.8946L16.36 74.416ZM16.264 63.568L17.2342 63.8105L17.2355 63.805L16.264 63.568ZM19.528 52.144L20.4838 52.4381L20.4845 52.4358L19.528 52.144ZM22.888 41.008L21.9329 40.7116L21.9297 40.7222L22.888 41.008ZM25.672 29.488L24.6902 29.298L24.6887 29.3056L24.6874 29.3133L25.672 29.488ZM26.344 10.192L25.3596 10.3678L25.3596 10.3678L26.344 10.192ZM24.52 6.16L23.7643 6.81493L23.7877 6.84188L23.8129 6.8671L24.52 6.16ZM16.936 5.96799L16.3505 5.15731L16.3505 5.15732L16.936 5.96799ZM14.056 9.328L14.9242 9.82414L14.9292 9.81554L14.9339 9.80685L14.056 9.328ZM12.328 13.84L11.3536 13.6151L11.3536 13.6151L12.328 13.84ZM13.192 25.84V26.84H14.8351L14.0802 25.3806L13.192 25.84ZM6.376 23.632L5.65336 24.3232L5.65336 24.3232L6.376 23.632ZM5.704 12.208L4.79854 11.7836L4.79854 11.7836L5.704 12.208ZM9.64 6.64L8.93289 5.93289L8.93289 5.93289L9.64 6.64ZM15.592 2.512L16.0078 3.42147L16.0184 3.41661L16.0289 3.41151L15.592 2.512ZM32.68 5.68L31.8607 6.25351L31.8685 6.2643L32.68 5.68ZM34.312 33.136L33.3426 32.8904L33.3403 32.8996L34.312 33.136ZM29.896 48.688L28.9431 48.3848L28.9415 48.3897L29.896 48.688ZM27.592 55.504L26.6508 55.1661L26.6483 55.1732L26.6458 55.1803L27.592 55.504ZM25.288 63.088L24.3222 62.8289L24.3199 62.8371L24.3179 62.8455L25.288 63.088ZM24.712 73.264L23.8438 73.7601L23.8535 73.7773L23.864 73.794L24.712 73.264ZM31.912 71.824L31.3162 71.0209L31.3098 71.0256L31.3036 71.0304L31.912 71.824ZM37.864 65.872L37.0812 65.2498L37.0812 65.2498L37.864 65.872ZM43.528 57.52L42.6721 57.0029L42.6681 57.0095L42.6642 57.0161L43.528 57.52ZM48.616 48.112L49.5176 48.5447L49.5208 48.5378L48.616 48.112ZM52.456 38.896L53.3982 39.231L53.4005 39.2245L52.456 38.896ZM54.472 31.216V30.216H53.6083L53.4826 31.0705L54.472 31.216ZM60.136 33.232L60.8431 32.5249L60.8431 32.5249L60.136 33.232ZM61.288 40.336L60.3517 39.9849L60.3452 40.0022L60.3393 40.0198L61.288 40.336ZM58.6 47.152L57.6798 46.7604L57.6784 46.7639L58.6 47.152ZM55.432 54.928L56.359 55.3032L56.362 55.2957L55.432 54.928ZM52.648 62.992L51.6865 62.7173L51.6843 62.7251L51.6822 62.7329L52.648 62.992ZM52.072 73.168L51.1978 73.6536L51.2175 73.689L51.24 73.7227L52.072 73.168ZM60.232 71.344L59.6425 70.5362L59.6302 70.5452L59.6181 70.5546L60.232 71.344ZM67.528 64.24L68.2976 64.8786L68.3041 64.8706L67.528 64.24ZM74.824 53.968L75.6712 54.4993L75.6752 54.4929L74.824 53.968ZM81.256 42.064L80.3505 41.6396L80.3505 41.6396L81.256 42.064ZM85.768 29.968L84.8077 29.6892L84.8056 29.6964L84.8036 29.7036L85.768 29.968ZM85.576 11.632L84.805 12.2689L84.8131 12.2786L84.8214 12.2882L85.576 11.632ZM80.968 8.464L80.1184 7.93663L79.4577 9.001L80.642 9.40937L80.968 8.464ZM84.616 4.432L85.161 5.2705L85.1707 5.26405L84.616 4.432ZM92.68 5.96799L91.8991 6.59269L91.9106 6.60703L91.9226 6.62093L92.68 5.96799ZM93.064 26.512L92.1072 26.2208L92.1035 26.2336L93.064 26.512ZM87.688 40.336L86.7865 39.9033L86.784 39.9084L87.688 40.336ZM79.912 54.256L79.0727 53.7123L79.0708 53.7152L79.912 54.256ZM70.6 66.448L69.8612 65.774L69.8548 65.7812L70.6 66.448ZM60.712 75.088L60.1761 74.2436L60.1648 74.251L60.712 75.088ZM46.696 77.296L47.16 76.4102L47.1517 76.4058L47.1432 76.4016L46.696 77.296ZM43.624 74.416L42.7586 74.917L42.7625 74.9238L42.7665 74.9305L43.624 74.416ZM42.856 67.696L43.8304 67.9209L42.856 67.696ZM43.528 65.2L44.4838 65.4941L42.7434 64.5799L43.528 65.2ZM34.024 74.704L33.4292 73.9002L33.4201 73.9069L33.4112 73.9138L34.024 74.704ZM24.616 77.352C24.064 77.352 23.3002 77.2679 22.3043 77.0811L21.9357 79.0469C22.9878 79.2441 23.888 79.352 24.616 79.352V77.352ZM22.3043 77.0811C21.3953 76.9107 20.4346 76.5654 19.4199 76.0282L18.4841 77.7958C19.6454 78.4106 20.7967 78.8333 21.9357 79.0469L22.3043 77.0811ZM19.3992 76.0176C18.5709 75.6034 17.8373 74.9157 17.2133 73.8946L15.5067 74.9375C16.2907 76.2203 17.2851 77.1966 18.5048 77.8064L19.3992 76.0176ZM17.2133 73.8946C16.6375 72.9524 16.304 71.6177 16.304 69.808H14.304C14.304 71.8383 14.6745 73.5756 15.5067 74.9375L17.2133 73.8946ZM16.304 69.808C16.304 68.3253 16.6029 66.3353 17.2341 63.8105L15.2939 63.3255C14.6451 65.9207 14.304 68.0907 14.304 69.808H16.304ZM17.2355 63.805C17.8683 61.2104 18.9493 57.4251 20.4838 52.4381L18.5722 51.8499C17.0347 56.8469 15.9397 60.6776 15.2925 63.331L17.2355 63.805ZM20.4845 52.4358C21.6371 48.6579 22.7577 44.9439 23.8463 41.2938L21.9297 40.7222C20.8423 44.3681 19.7229 48.0781 18.5715 51.8522L20.4845 52.4358ZM23.8431 41.3044C25.0079 37.551 25.9456 33.6703 26.6566 29.6627L24.6874 29.3133C23.9904 33.2417 23.0721 37.0409 21.9329 40.7116L23.8431 41.3044ZM26.6538 29.678C27.4351 25.6411 27.824 21.353 27.824 16.816H25.824C25.824 21.239 25.4449 25.3989 24.6902 29.298L26.6538 29.678ZM27.824 16.816C27.824 14.1564 27.6622 11.8854 27.3284 10.0162L25.3596 10.3678C25.6658 12.0826 25.824 14.2276 25.824 16.816H27.824ZM27.3284 10.0162C26.9875 8.10714 26.3183 6.54404 25.2271 5.45289L23.8129 6.8671C24.5137 7.56796 25.0605 8.69285 25.3596 10.3678L27.3284 10.0162ZM25.2757 5.50507C24.2143 4.28034 22.7277 3.72 20.968 3.72V5.72C22.2803 5.72 23.1617 6.11966 23.7643 6.81493L25.2757 5.50507ZM20.968 3.72C19.2397 3.72 17.6869 4.19213 16.3505 5.15731L17.5215 6.77868C18.4891 6.07987 19.6243 5.72 20.968 5.72V3.72ZM16.3505 5.15732C15.0628 6.08735 14.0083 7.32704 13.1781 8.84915L14.9339 9.80685C15.6397 8.51295 16.5052 7.51264 17.5215 6.77867L16.3505 5.15732ZM13.1878 8.83186C12.3666 10.2689 11.7573 11.8657 11.3536 13.6151L13.3024 14.0649C13.6667 12.4863 14.2094 11.0751 14.9242 9.82414L13.1878 8.83186ZM11.3536 13.6151C10.953 15.3509 10.752 17.0903 10.752 18.832H12.752C12.752 17.2456 12.935 15.6571 13.3024 14.0649L11.3536 13.6151ZM10.752 18.832C10.752 21.7548 11.2493 24.2608 12.3038 26.2994L14.0802 25.3806C13.2147 23.7072 12.752 21.5412 12.752 18.832H10.752ZM13.192 24.84C10.1839 24.84 8.23699 24.1309 7.09864 22.9408L5.65336 24.3232C7.33102 26.0771 9.92806 26.84 13.192 26.84V24.84ZM7.09864 22.9408C5.88158 21.6684 5.264 20.0978 5.264 18.16H3.264C3.264 20.5742 4.05442 22.6516 5.65336 24.3232L7.09864 22.9408ZM5.264 18.16C5.264 16.4105 5.70074 14.571 6.60946 12.6324L4.79854 11.7836C3.78726 13.941 3.264 16.0694 3.264 18.16H5.264ZM6.60946 12.6324C7.51826 10.6937 8.76176 8.93245 10.3471 7.3471L8.93289 5.93289C7.19024 7.67554 5.80974 9.62634 4.79854 11.7836L6.60946 12.6324ZM10.3471 7.3471C11.9902 5.70406 13.8753 4.39632 16.0078 3.42147L15.1762 1.60252C12.8287 2.67568 10.7458 4.11994 8.93289 5.93289L10.3471 7.3471ZM16.0289 3.41151C18.1289 2.39152 20.379 1.88 22.792 1.88V-0.120003C20.085 -0.120003 17.5351 0.456473 15.1551 1.61249L16.0289 3.41151ZM22.792 1.88C26.8611 1.88 29.8315 3.35446 31.8608 6.25346L33.4992 5.10654C31.0485 1.60554 27.4269 -0.120003 22.792 -0.120003V1.88ZM31.8685 6.2643C34.003 9.22887 35.136 13.5357 35.136 19.312H37.136C37.136 13.3123 35.965 8.53113 33.4915 5.09569L31.8685 6.2643ZM35.136 19.312C35.136 23.6359 34.5407 28.1611 33.3426 32.8904L35.2814 33.3816C36.5153 28.5109 37.136 23.8201 37.136 19.312H35.136ZM33.3403 32.8996C32.1948 37.609 30.7295 42.7704 28.9431 48.3848L30.8489 48.9912C32.6465 43.3416 34.1252 38.135 35.2837 33.3724L33.3403 32.8996ZM28.9415 48.3897C28.3065 50.4218 27.5431 52.6803 26.6508 55.1661L28.5332 55.8419C29.4329 53.3357 30.2055 51.0502 30.8505 48.9863L28.9415 48.3897ZM26.6458 55.1803C25.8062 57.6348 25.0317 60.1844 24.3222 62.8289L26.2538 63.3471C26.9523 60.7436 27.7138 58.2372 28.5382 55.8277L26.6458 55.1803ZM24.3179 62.8455C23.6586 65.4823 23.328 68.1238 23.328 70.768H25.328C25.328 68.2922 25.6374 65.8137 26.2581 63.3305L24.3179 62.8455ZM23.328 70.768C23.328 71.4066 23.3613 71.973 23.4356 72.4561C23.508 72.9265 23.6287 73.3837 23.8438 73.7601L25.5802 72.7679C25.5393 72.6963 25.468 72.5135 25.4124 72.1519C25.3587 71.803 25.328 71.3454 25.328 70.768H23.328ZM23.864 73.794C24.432 74.7028 25.4076 75.032 26.44 75.032V73.032C25.8084 73.032 25.632 72.8492 25.56 72.734L23.864 73.794ZM26.44 75.032C28.4609 75.032 30.4942 74.1711 32.5204 72.6176L31.3036 71.0304C29.4898 72.4209 27.8751 73.032 26.44 73.032V75.032ZM32.5078 72.6271C34.5786 71.0907 36.6234 69.0398 38.6468 66.4942L37.0812 65.2498C35.1366 67.6962 33.2134 69.6133 31.3162 71.0209L32.5078 72.6271ZM38.6468 66.4942C40.6638 63.9568 42.5784 61.1326 44.3918 58.0239L42.6642 57.0161C40.8936 60.0514 39.0322 62.7952 37.0812 65.2498L38.6468 66.4942ZM44.3839 58.0371C46.2563 54.938 47.9675 51.7739 49.5175 48.5447L47.7145 47.6793C46.1925 50.8501 44.5117 53.958 42.6721 57.0029L44.3839 58.0371ZM49.5208 48.5378C51.0684 45.2493 52.3615 42.1468 53.3982 39.231L51.5138 38.561C50.5025 41.4052 49.2356 44.4467 47.7112 47.6862L49.5208 48.5378ZM53.4005 39.2245C54.4374 36.2435 55.1293 33.6196 55.4614 31.3615L53.4826 31.0705C53.1747 33.1644 52.5226 35.6605 51.5115 38.5675L53.4005 39.2245ZM54.472 32.216C56.7165 32.216 58.321 32.8312 59.4289 33.9391L60.8431 32.5249C59.263 30.9448 57.0915 30.216 54.472 30.216V32.216ZM59.4289 33.9391C60.688 35.1982 61.152 36.2377 61.152 37.072H63.152C63.152 35.4743 62.272 33.9538 60.8431 32.5249L59.4289 33.9391ZM61.152 37.072C61.152 37.5082 60.9316 38.4385 60.3517 39.9849L62.2243 40.6871C62.7964 39.1615 63.152 37.9158 63.152 37.072H61.152ZM60.3393 40.0198C59.8406 41.516 58.9576 43.7576 57.6798 46.7604L59.5202 47.5436C60.8024 44.5304 61.7114 42.228 62.2367 40.6522L60.3393 40.0198ZM57.6784 46.7639C56.6512 49.2035 55.5924 51.8023 54.502 54.5603L56.362 55.2957C57.4476 52.5497 58.5008 49.9645 59.5216 47.5401L57.6784 46.7639ZM54.5051 54.5528C53.4042 57.2724 52.4646 59.994 51.6865 62.7173L53.6095 63.2667C54.3674 60.614 55.2838 57.9596 56.3589 55.3032L54.5051 54.5528ZM51.6822 62.7329C50.9594 65.4267 50.592 67.9785 50.592 70.384H52.592C52.592 68.1815 52.9286 65.8053 53.6138 63.2511L51.6822 62.7329ZM50.592 70.384C50.592 71.7018 50.7488 72.8454 51.1978 73.6536L52.9462 72.6824C52.7552 72.3386 52.592 71.6262 52.592 70.384H50.592ZM51.24 73.7227C51.876 74.6768 52.9349 75.032 54.088 75.032V73.032C53.3211 73.032 53.036 72.8112 52.904 72.6133L51.24 73.7227ZM54.088 75.032C56.2039 75.032 58.4683 73.9826 60.8459 72.1334L59.6181 70.5546C57.3877 72.2894 55.5561 73.032 54.088 73.032V75.032ZM60.8215 72.1518C63.2742 70.362 65.7651 67.9305 68.2976 64.8786L66.7584 63.6014C64.2989 66.5655 61.9258 68.87 59.6425 70.5362L60.8215 72.1518ZM68.3041 64.8706C70.8288 61.7633 73.2842 58.3056 75.6712 54.4993L73.9768 53.4367C71.6278 57.1824 69.2192 60.5727 66.7519 63.6094L68.3041 64.8706ZM75.6752 54.4929C78.0632 50.6204 80.2253 46.6188 82.1615 42.4884L80.3505 41.6396C78.4467 45.7012 76.3208 49.6356 73.9728 53.4431L75.6752 54.4929ZM82.1615 42.4884C84.1033 38.3459 85.628 34.2605 86.7324 30.2324L84.8036 29.7036C83.7321 33.6115 82.2487 37.5901 80.3505 41.6396L82.1615 42.4884ZM86.7283 30.2468C87.9 26.2111 88.496 22.4995 88.496 19.12H86.496C86.496 22.2685 85.94 25.7889 84.8077 29.6892L86.7283 30.2468ZM88.496 19.12C88.496 15.5324 87.8542 12.728 86.3306 10.9758L84.8214 12.2882C85.8578 13.48 86.496 15.6676 86.496 19.12H88.496ZM86.347 10.9951C85.0104 9.37717 83.3187 8.2168 81.294 7.51862L80.642 9.40937C82.3293 9.9912 83.7096 10.9428 84.805 12.2689L86.347 10.9951ZM81.8176 8.99136C82.9232 7.21025 84.0454 5.99558 85.161 5.27044L84.071 3.59355C82.6266 4.53242 81.3168 6.00574 80.1184 7.93663L81.8176 8.99136ZM85.1707 5.26405C86.4377 4.41941 87.4252 4.088 88.168 4.088V2.088C86.8628 2.088 85.4823 2.65258 84.0613 3.59995L85.1707 5.26405ZM88.168 4.088C89.1812 4.088 90.4284 4.75422 91.8991 6.59269L93.4609 5.3433C91.8596 3.34177 90.0988 2.088 88.168 2.088V4.088ZM91.9226 6.62093C93.2925 8.20998 94.08 10.8636 94.08 14.8H96.08C96.08 10.6723 95.2675 7.43801 93.4374 5.31506L91.9226 6.62093ZM94.08 14.8C94.08 18.065 93.4322 21.8677 92.1073 26.2208L94.0207 26.8032C95.3838 22.3243 96.08 18.319 96.08 14.8H94.08ZM92.1035 26.2336C90.8411 30.5891 89.0703 35.1454 86.7865 39.9033L88.5895 40.7687C90.9138 35.9266 92.7269 31.2669 94.0245 26.7904L92.1035 26.2336ZM86.784 39.9084C84.5636 44.603 81.9934 49.2043 79.0727 53.7123L80.7513 54.7997C83.7186 50.2197 86.3324 45.541 88.592 40.7636L86.784 39.9084ZM79.0708 53.7152C76.2188 58.1517 73.1486 62.1706 69.8612 65.774L71.3388 67.122C74.7074 63.4294 77.8452 59.3203 80.7532 54.7968L79.0708 53.7152ZM69.8548 65.7812C66.6379 69.3765 63.4105 72.1911 60.1762 74.2437L61.2478 75.9323C64.6695 73.7609 68.0341 70.8155 71.3452 67.1148L69.8548 65.7812ZM60.1648 74.251C56.9481 76.3542 53.9682 77.352 51.208 77.352V79.352C54.4638 79.352 57.8199 78.1738 61.2593 75.925L60.1648 74.251ZM51.208 77.352C49.6897 77.352 48.3473 77.0321 47.16 76.4102L46.232 78.1818C47.7327 78.9679 49.3983 79.352 51.208 79.352V77.352ZM47.1432 76.4016C46.0409 75.8504 45.1561 75.0258 44.4815 73.9015L42.7665 74.9305C43.6279 76.3662 44.7911 77.4616 46.2488 78.1904L47.1432 76.4016ZM44.4894 73.915C43.8886 72.8772 43.568 71.6167 43.568 70.096H41.568C41.568 71.9033 41.9514 73.5228 42.7586 74.917L44.4894 73.915ZM43.568 70.096C43.568 69.4116 43.6535 68.6872 43.8304 67.9209L41.8816 67.4711C41.6745 68.3688 41.568 69.2444 41.568 70.096H43.568ZM43.8304 67.9209C44.0169 67.1126 44.2347 66.3037 44.4838 65.4941L42.5722 64.9059C42.3093 65.7603 42.0791 66.6154 41.8816 67.4711L43.8304 67.9209ZM42.7434 64.5799C39.6483 68.4963 36.5419 71.5967 33.4292 73.9002L34.6188 75.5078C37.9061 73.0753 41.1358 69.8397 44.3126 65.8201L42.7434 64.5799ZM33.4112 73.9138C30.4033 76.2464 27.4769 77.352 24.616 77.352V79.352C28.0271 79.352 31.3727 78.0256 34.6368 75.4942L33.4112 73.9138ZM135.124 75.856L135.792 75.1114L135.792 75.1114L135.124 75.856ZM129.172 69.232L128.37 69.829L128.374 69.8349L128.379 69.8408L129.172 69.232ZM123.028 60.304L122.173 60.8234L122.179 60.8333L122.186 60.8431L123.028 60.304ZM117.46 50.608L116.573 51.0694L116.576 51.0763L116.58 51.0831L117.46 50.608ZM113.236 42.064L114.144 41.6449L113.051 39.276L112.281 41.7688L113.236 42.064ZM103.924 72.208L102.969 71.9128L102.967 71.9168L103.924 72.208ZM101.812 75.28L101.298 74.4225L101.277 74.4348L101.257 74.448L101.812 75.28ZM98.644 76.432L98.5336 75.4381L98.5272 75.4388L98.644 76.432ZM95.38 76.624L94.473 76.2029L93.8132 77.624H95.38V76.624ZM97.876 70.48L96.944 70.1176L96.9396 70.1289L96.9354 70.1404L97.876 70.48ZM100.948 62.128L100.011 61.7789L100.008 61.787L100.005 61.7952L100.948 62.128ZM105.172 50.224L104.226 49.9L104.226 49.9L105.172 50.224ZM110.836 33.52L109.89 33.1954L109.888 33.201L110.836 33.52ZM118.708 10.576L117.772 10.2249L117.767 10.2381L117.762 10.2515L118.708 10.576ZM119.476 8.464L120.418 8.80033L120.421 8.79032L120.425 8.78022L119.476 8.464ZM119.476 4.23999L118.662 4.82123L118.684 4.85155L118.708 4.88018L119.476 4.23999ZM113.14 5.488L113.794 6.24482L113.796 6.2426L113.14 5.488ZM109.3 10.192L108.443 9.6775L108.436 9.68817L108.43 9.69898L109.3 10.192ZM106.708 16.144L105.754 15.8457L105.754 15.8457L106.708 16.144ZM106.228 24.88V25.88H107.615L107.177 24.5638L106.228 24.88ZM101.716 23.344L100.922 23.9514L100.942 23.9777L100.963 24.0025L101.716 23.344ZM102.388 12.88L103.25 13.387L103.25 13.387L102.388 12.88ZM107.284 6.928L107.954 7.6701L107.956 7.66899L107.284 6.928ZM113.62 2.512L113.183 1.61243L113.173 1.61757L113.62 2.512ZM123.124 2.32L122.267 2.83449L122.279 2.8549L122.292 2.8747L123.124 2.32ZM123.796 7.6L122.831 7.33688L122.82 7.37858L122.812 7.42111L123.796 7.6ZM123.316 9.616L124.272 9.91108L124.274 9.90335L123.316 9.616ZM115.252 35.728L114.297 35.4329L116.071 36.3015L115.252 35.728ZM118.708 32.176L118.114 31.3718L118.105 31.3782L118.097 31.3847L118.708 32.176ZM123.508 28.432L122.883 27.6511L122.876 27.6568L123.508 28.432ZM132.724 20.368L132.046 19.6332L132.039 19.6398L132.724 20.368ZM142.228 10.672L141.48 10.0085L141.48 10.0085L142.228 10.672ZM149.716 0.879997L150.484 0.239812L149.605 -0.815126L148.871 0.345356L149.716 0.879997ZM150.388 2.89599L151.379 2.76383L151.379 2.76383L150.388 2.89599ZM148.084 11.632L147.266 11.0571L147.261 11.0645L147.255 11.0721L148.084 11.632ZM141.748 19.024L142.437 19.7486L142.446 19.7398L141.748 19.024ZM133.108 26.512L133.721 27.3023L133.731 27.2944L133.108 26.512ZM123.796 33.424L123.218 32.6079L123.21 32.6138L123.796 33.424ZM115.636 39.088L115.086 38.2526L114.292 38.7753L114.774 39.595L115.636 39.088ZM121.204 48.4L120.35 48.9199L120.354 48.9267L120.358 48.9333L121.204 48.4ZM127.156 57.04L126.356 57.64L126.36 57.6458L126.365 57.6514L127.156 57.04ZM134.74 65.68L135.455 64.9807L135.455 64.9807L134.74 65.68ZM145.204 75.184L146.084 75.6581L146.473 74.9365L145.842 74.4138L145.204 75.184ZM143.092 77.392L142.537 76.5599L142.537 76.56L143.092 77.392ZM140.02 77.352C138.988 77.352 137.592 76.7258 135.792 75.1114L134.456 76.6006C136.368 78.3142 138.236 79.352 140.02 79.352V77.352ZM135.792 75.1114C133.996 73.5012 132.053 71.3436 129.965 68.6232L128.379 69.8408C130.515 72.6244 132.541 74.8828 134.456 76.6006L135.792 75.1114ZM129.974 68.635C127.942 65.9037 125.907 62.9472 123.87 59.7649L122.186 60.8431C124.245 64.0608 126.306 67.0563 128.37 69.829L129.974 68.635ZM123.883 59.7846C121.907 56.5344 120.059 53.3172 118.34 50.1329L116.58 51.0831C118.317 54.2988 120.181 57.5456 122.173 60.8234L123.883 59.7846ZM118.347 50.1466C116.688 46.9566 115.288 44.1231 114.144 41.6449L112.328 42.4831C113.488 44.9969 114.904 47.8594 116.573 51.0694L118.347 50.1466ZM112.281 41.7688L102.969 71.9128L104.879 72.5032L114.191 42.3592L112.281 41.7688ZM102.967 71.9168C102.564 73.2411 101.977 74.015 101.298 74.4225L102.326 76.1375C103.567 75.393 104.388 74.1189 104.881 72.4992L102.967 71.9168ZM101.257 74.448C100.431 74.9988 99.5274 75.3277 98.5336 75.4381L98.7544 77.4259C100.065 77.2803 101.273 76.8412 102.367 76.1121L101.257 74.448ZM98.5272 75.4388C97.4777 75.5623 96.4287 75.624 95.38 75.624V77.624C96.5073 77.624 97.6343 77.5577 98.7608 77.4252L98.5272 75.4388ZM96.287 77.0451C97.1339 75.2211 97.9768 73.145 98.8166 70.8196L96.9354 70.1404C96.1112 72.423 95.2901 74.4429 94.473 76.2029L96.287 77.0451ZM98.808 70.8424C99.709 68.5256 100.737 65.7312 101.891 62.4608L100.005 61.7952C98.8552 65.0528 97.835 67.8264 96.944 70.1176L98.808 70.8424ZM101.885 62.4771C103.105 59.2021 104.516 55.2252 106.118 50.548L104.226 49.9C102.628 54.5668 101.223 58.5259 100.011 61.7789L101.885 62.4771ZM106.118 50.548C107.719 45.8739 109.607 40.3041 111.784 33.839L109.888 33.201C107.713 39.6639 105.825 45.2301 104.226 49.9L106.118 50.548ZM111.782 33.8446C114.022 27.3165 116.646 19.6685 119.654 10.9005L117.762 10.2515C114.754 19.0195 112.13 26.6675 109.89 33.1954L111.782 33.8446ZM119.644 10.9271C119.839 10.4079 120.097 9.69825 120.418 8.80033L118.534 8.12766C118.215 9.02175 117.961 9.72008 117.772 10.2249L119.644 10.9271ZM120.425 8.78022C120.769 7.7487 120.956 6.77545 120.956 5.872H118.956C118.956 6.50454 118.823 7.25929 118.527 8.14777L120.425 8.78022ZM120.956 5.872C120.956 5.02832 120.765 4.22463 120.244 3.59981L118.708 4.88018C118.827 5.02336 118.956 5.30768 118.956 5.872H120.956ZM120.29 3.65875C119.688 2.81683 118.666 2.568 117.652 2.568V4.568C118.43 4.568 118.624 4.76717 118.662 4.82123L120.29 3.65875ZM117.652 2.568C115.815 2.568 114.087 3.33912 112.484 4.73339L113.796 6.2426C115.137 5.07687 116.417 4.568 117.652 4.568V2.568ZM112.486 4.73117C110.984 6.02908 109.638 7.68435 108.443 9.6775L110.157 10.7065C111.266 8.85964 112.48 7.37891 113.794 6.24482L112.486 4.73117ZM108.43 9.69898C107.308 11.679 106.415 13.7281 105.754 15.8457L107.662 16.4423C108.281 14.4639 109.116 12.545 110.17 10.685L108.43 9.69898ZM105.754 15.8457C105.093 17.9596 104.748 19.887 104.748 21.616H106.748C106.748 20.1449 107.043 18.4244 107.662 16.4423L105.754 15.8457ZM104.748 21.616C104.748 22.9185 104.919 24.1161 105.279 25.1962L107.177 24.5638C106.897 23.7239 106.748 22.7455 106.748 21.616H104.748ZM106.228 23.88C104.246 23.88 103.091 23.3964 102.469 22.6855L100.963 24.0025C102.133 25.3396 103.986 25.88 106.228 25.88V23.88ZM102.51 22.7365C101.828 21.844 101.468 20.7525 101.468 19.408H99.468C99.468 21.1355 99.9402 22.668 100.922 23.9514L102.51 22.7365ZM101.468 19.408C101.468 17.4372 102.046 15.4343 103.25 13.387L101.526 12.373C100.17 14.6777 99.468 17.0268 99.468 19.408H101.468ZM103.25 13.387C104.475 11.3037 106.041 9.39797 107.954 7.6701L106.614 6.1859C104.559 8.04203 102.861 10.1043 101.526 12.373L103.25 13.387ZM107.956 7.66899C109.945 5.86595 111.983 4.44863 114.067 3.40643L113.173 1.61757C110.905 2.75136 108.719 4.27804 106.612 6.18701L107.956 7.66899ZM114.057 3.41151C116.211 2.36541 118.074 1.88 119.668 1.88V-0.120003C117.678 -0.120003 115.509 0.482587 113.183 1.61249L114.057 3.41151ZM119.668 1.88C121.248 1.88 121.956 2.3167 122.267 2.83449L123.981 1.8055C123.14 0.40329 121.544 -0.120003 119.668 -0.120003V1.88ZM122.292 2.8747C122.823 3.6707 123.084 4.53374 123.084 5.488H125.084C125.084 4.13824 124.705 2.88929 123.956 1.76529L122.292 2.8747ZM123.084 5.488C123.084 6.09991 123.001 6.71548 122.831 7.33688L124.761 7.86312C124.975 7.07651 125.084 6.28408 125.084 5.488H123.084ZM122.812 7.42111C122.69 8.09105 122.539 8.72669 122.358 9.32865L124.274 9.90335C124.477 9.2253 124.646 8.51694 124.78 7.77888L122.812 7.42111ZM122.361 9.32093L114.297 35.4329L116.207 36.0231L124.271 9.91107L122.361 9.32093ZM116.071 36.3015C116.902 35.1147 117.98 34.002 119.319 32.9673L118.097 31.3847C116.62 32.526 115.394 33.7813 114.433 35.1545L116.071 36.3015ZM119.302 32.9802C120.789 31.8811 122.402 30.6231 124.14 29.2072L122.876 27.6568C121.158 29.0569 119.571 30.2949 118.114 31.3718L119.302 32.9802ZM124.133 29.2129C127.037 26.889 130.13 24.1828 133.409 21.0962L132.039 19.6398C128.79 22.6972 125.739 25.367 122.883 27.6511L124.133 29.2129ZM133.402 21.1028C136.755 18.0082 139.946 14.7524 142.976 11.3355L141.48 10.0085C138.494 13.3756 135.349 16.5838 132.046 19.6332L133.402 21.1028ZM142.976 11.3355C146.012 7.91169 148.543 4.60479 150.561 1.41464L148.871 0.345356C146.921 3.4272 144.46 6.6483 141.48 10.0085L142.976 11.3355ZM148.948 1.52018C149.078 1.67701 149.274 2.10881 149.397 3.02816L151.379 2.76383C151.246 1.76318 150.994 0.850982 150.484 0.239812L148.948 1.52018ZM149.397 3.02816C149.523 3.97563 149.58 4.65932 149.58 5.10399H151.58C151.58 4.52467 151.509 3.73637 151.379 2.76383L149.397 3.02816ZM149.58 5.10399C149.58 6.80752 148.863 8.78376 147.266 11.0571L148.902 12.2069C150.633 9.74424 151.58 7.36847 151.58 5.10399H149.58ZM147.255 11.0721C145.702 13.3707 143.638 15.7831 141.05 18.3082L142.446 19.7398C145.106 17.1449 147.266 14.6293 148.913 12.1919L147.255 11.0721ZM141.059 18.2994C138.458 20.7732 135.601 23.25 132.485 25.7296L133.731 27.2944C136.887 24.782 139.79 22.2668 142.437 19.7486L141.059 18.2994ZM132.495 25.7218C129.37 28.1454 126.278 30.4408 123.218 32.608L124.374 34.24C127.458 32.0552 130.574 29.7426 133.721 27.3022L132.495 25.7218ZM123.21 32.6138C120.211 34.7833 117.503 36.6626 115.086 38.2526L116.186 39.9234C118.633 38.3134 121.365 36.4167 124.382 34.2342L123.21 32.6138ZM114.774 39.595C116.696 42.8629 118.555 45.9713 120.35 48.9199L122.058 47.8801C120.269 44.9407 118.416 41.8411 116.498 38.581L114.774 39.595ZM120.358 48.9333C122.229 51.9004 124.228 54.8026 126.356 57.64L127.956 56.44C125.86 53.6454 123.891 50.7876 122.05 47.8667L120.358 48.9333ZM126.365 57.6514C128.568 60.5025 131.122 63.4117 134.025 66.3793L135.455 64.9807C132.598 62.0603 130.096 59.2095 127.947 56.4286L126.365 57.6514ZM134.025 66.3793C136.935 69.3542 140.451 72.546 144.566 75.9542L145.842 74.4138C141.765 71.038 138.305 67.8938 135.455 64.9807L134.025 66.3793ZM144.324 74.7099C143.969 75.3692 143.391 75.9909 142.537 76.5599L143.647 78.2241C144.713 77.5131 145.543 76.6628 146.084 75.6581L144.324 74.7099ZM142.537 76.56C141.731 77.0974 140.898 77.352 140.02 77.352V79.352C141.318 79.352 142.533 78.9666 143.647 78.2241L142.537 76.56Z" fill="#C84C6A"/>
</g>
<defs>
<filter id="filter0_d_3_4" x="0.264008" y="0.879997" width="154.316" height="85.472" filterUnits="userSpaceOnUse" color-interpolation-filters="sRGB">
<feFlood flood-opacity="0" result="BackgroundImageFix"/>
<feColorMatrix in="SourceAlpha" type="matrix" values="0 0 0 0 0 0 0 0 0 0 0 0 0 0 0 0 0 0 127 0" result="hardAlpha"/>
<feOffset dy="4"/>
<feGaussianBlur stdDeviation="2"/>
<feComposite in2="hardAlpha" operator="out"/>
<feColorMatrix type="matrix" values="0 0 0 0 0 0 0 0 0 0 0 0 0 0 0 0 0 0 0.25 0"/>
<feBlend mode="normal" in2="BackgroundImageFix" result="effect1_dropShadow_3_4"/>
<feBlend mode="normal" in="SourceGraphic" in2="effect1_dropShadow_3_4" result="shape"/>
</filter>
</defs>
</svg>
